<svg xmlns="http://www.w3.org/2000/svg" viewBox="0 0 32 32" fill="none">
  <defs>
    <linearGradient id="grad" x1="0%" y1="0%" x2="100%" y2="100%">
      <stop offset="0%" style="stop-color:#10b981"/>
      <stop offset="100%" style="stop-color:#059669"/>
    </linearGradient>
  </defs>
  <circle cx="16" cy="16" r="15" fill="url(#grad)" stroke="white" stroke-width="1"/>
  <path d="M16 4C9.4 4 4 9.4 4 16s5.4 12 12 12 12-5.4 12-12S22.6 4 16 4zm1 17.93c-3.95-.49-7-3.85-7-7.93 0-.62.08-1.21.21-1.79L13 15v1c0 1.1.9 2 2 2v1.93zM19.9 19.39c-.26-.81-1-1.39-1.9-1.39h-1v-3c0-.55-.45-1-1-1H10v-2h2c.55 0 1-.45 1-1V9h2c1.1 0 2-.9 2-2v-.41c2.93 1.19 5 4.06 5 7.41 0 2.08-.8 3.97-2.1 5.39z" fill="white"/>
</svg>
